<?xml version="1.0" encoding="UTF-8" standalone="no"?>
<!-- Created with Inkscape (http://www.inkscape.org/) -->

<svg
   width="49.701195mm"
   height="31.280319mm"
   viewBox="0 0 49.701195 31.280319"
   version="1.1"
   id="svg1"
   xml:space="preserve"
   xmlns="http://www.w3.org/2000/svg"
   xmlns:svg="http://www.w3.org/2000/svg"><defs
     id="defs1" /><g
     id="layer1"
     transform="translate(-24.823257,-34.58458)"><path
       style="fill:#1a1a1a"
       d="m 38.615199,61.174407 -2.52087,4.53017 c 2.93874,-0.91108 13.66873,-4.6439 13.66873,-4.6439 4.59922,1.38755 9.01239,3.47578 13.67172,4.66517 0.12095,-0.12095 -2.51215,-4.52541 -2.51215,-4.52541 5.51516,1.7355 13.60183,4.54388 13.60183,4.54388 0,0 -19.04697,-31.15767 -19.23756,-31.15974 -0.0973,-0.001 -1.34742,1.90233 -2.77813,4.22975 -1.43071,2.32741 -2.67532,4.23241 -2.7658,4.23333 -0.0905,9.2e-4 -1.33167,-1.90632 -2.75817,-4.23831 -1.42651,-2.332 -2.68488,-4.20723 -2.79639,-4.16719 -6.5854,10.32428 -19.36515,31.22274 -19.36515,31.22274 4.59954,-1.55705 13.79194,-4.69049 13.79194,-4.69049 z m -0.67297,-2.10874 -1.38192,-0.84191 3.76317,-6.25485 c 2.06974,-3.44017 3.8227,-6.25781 3.89546,-6.26143 0.1565,-0.008 1.87303,2.93201 1.89599,3.24713 0.0182,0.2495 -6.36677,10.72174 -6.6219,10.86087 -0.0929,0.0507 -0.79074,-0.28676 -1.5508,-0.74981 z m 19.2413,-3.65778 c -1.52797,-2.4889 -3.03555,-4.9492 -3.35018,-5.46734 l -0.57205,-0.94207 1.00463,-1.67034 1.00464,-1.67033 1.19423,1.93691 c 4.50316,7.30364 6.29012,10.37677 6.18429,10.63541 -0.0669,0.16353 -0.69897,0.61361 -1.40456,1.00018 l -1.28288,0.70285 z m -8.46667,3.48492 c -0.50932,-0.30728 -0.96369,-0.59253 -1.0097,-0.63388 -0.11373,-0.1022 1.89777,-3.30335 2.07572,-3.30335 0.81549,1.00632 1.4313,2.1869 2.09071,3.30492 l -0.98305,0.59514 c -1.19096,0.72102 -1.04438,0.71851 -2.17368,0.0372 z"
       id="path1" /></g></svg>
